<?xml version="1.0" encoding="UTF-8" standalone="no"?>
<!DOCTYPE svg PUBLIC "-//W3C//DTD SVG 1.1//EN" "http://www.w3.org/Graphics/SVG/1.1/DTD/svg11.dtd">
<svg width="100%" height="100%" viewBox="0 0 167 89" version="1.1" xmlns="http://www.w3.org/2000/svg" xmlns:xlink="http://www.w3.org/1999/xlink" xml:space="preserve" xmlns:serif="http://www.serif.com/" style="fill-rule:evenodd;clip-rule:evenodd;stroke-linejoin:round;stroke-miterlimit:2;">
    <g transform="matrix(0.152219,0,0,0.152219,87.4499,43.7916)">
        <g id="logo-vectorisation-crade-sans-solidaires" transform="matrix(1,0,0,1,-574.5,-289.14)">
            <clipPath id="_clip1">
                <rect x="0" y="0" width="1149" height="578.28"/>
            </clipPath>
            <g clip-path="url(#_clip1)">
                <g id="Plan-de-travail1" serif:id="Plan de travail1" transform="matrix(0.883846,0,0,0.672419,530.308,282.416)">
                    <rect x="-600" y="-420" width="1300" height="860" style="fill:none;"/>
                    <g id="Calque-1" serif:id="Calque 1" transform="matrix(1.13142,0,0,1.48717,-598.345,-417.362)">
                        <g transform="matrix(1,0,0,1,685.673,176.137)">
                            <path d="M0,222.441C3.524,214.217 6.851,205.76 11.228,198.107C17.103,187.836 23.272,177.625 30.461,168.061C38.212,157.746 46.188,147.653 54.575,137.862C59.164,132.506 63.174,126.572 68.223,121.708C79.914,110.444 92.257,100.131 106.854,92.39C117.92,86.519 129.284,82.605 141.506,82.377C149.484,82.229 157.868,83.781 164.339,89.428C169.967,94.339 170.911,99.72 167.88,106.486C161.125,121.562 152.031,135.135 141.757,148.049C132.621,159.533 123.813,171.324 113.758,181.981C104.443,191.853 94.866,201.513 84.713,210.609C77.674,216.915 70.68,223.178 63.156,228.926C53.663,236.178 43.167,241.888 33.542,248.831C25.917,254.331 17.246,256.077 8.721,258.382C1.451,260.347 -5.333,252.847 -5.336,241.868C-5.114,236.323 -2.948,229.322 0,222.441M-60.177,387.08C-60.397,371.396 -60.247,355.708 -60.247,339.738C-54.969,342.705 -50.583,346.302 -45.856,349.306C-37.479,354.63 -28.318,358.383 -18.61,361.022C-6.393,364.341 5.826,364.758 18.166,362.893C35.945,360.206 51.219,351.258 65.703,341.542C81.643,330.849 96.129,318.145 109.65,304.375C121.05,292.765 131.097,280.037 140.968,267.218C149.271,256.436 157.059,245.2 164.322,233.625C166.589,230.01 169.165,226.443 171.944,222.484C172.189,229.645 172.441,236.182 172.718,242.705C173.666,265.111 171.801,287.585 173.837,309.982C174.654,318.978 175.825,328.006 178.385,336.654C181.647,347.674 185.27,358.52 191.268,368.623C197.266,378.725 205.075,386.448 215.273,391.696C226.703,397.575 239.502,397.89 251.924,398.796C263.292,399.625 274.768,398.503 286.095,397.088C297.702,395.64 304.467,382.837 297.566,372.76C293.177,366.352 286.221,362.605 281.672,356.27C274.667,346.512 268.897,336.72 269.109,324.042C269.488,301.394 269.124,278.736 269.286,256.084C269.323,250.915 269.609,245.648 270.32,240.576C271.704,230.683 272.449,220.734 273.627,210.83C274.633,202.373 275.64,193.893 276.702,185.456C278.112,174.264 281.194,163.274 283.847,152.303C288.495,133.081 293.578,113.944 299.635,95.073C304.396,80.236 309.721,65.629 315.052,51C323.363,28.191 333.635,6.233 343.506,-15.892C351.689,-34.233 360.573,-52.267 370.998,-69.478C375.349,-76.661 379.974,-83.677 384.438,-90.79C389.142,-98.283 394.923,-105.086 398.816,-113.09C402.156,-119.956 401.193,-124.639 395.905,-130.148C385.981,-140.49 375.319,-149.903 363.12,-157.528C352.375,-164.245 342.662,-172.661 329.801,-175.708C323.574,-177.184 318.831,-174.539 313.562,-172.49C310.08,-171.135 310.869,-168.033 309.729,-165.731C304.541,-155.247 300.858,-144.115 296.569,-133.281C287.369,-110.041 276.748,-87.459 266.354,-64.782C261.204,-53.544 255.623,-42.432 250.23,-31.294C241.67,-13.618 233.419,4.235 225.069,22.028C223.593,25.176 221.357,27.966 219.854,31.036C217.429,35.985 213.855,39.942 210.464,44.104C209.045,45.845 208.023,45.245 207.12,43.591C200.051,30.647 190.559,19.782 179.156,10.458C167.935,1.282 154.723,-2.834 140.729,-4.157C126.063,-5.542 111.891,-1.576 98.07,2.698C81.706,7.759 66.652,15.924 52.221,25.078C33.551,36.919 16.896,51.306 0.828,66.43C-7.575,74.339 -16.292,81.918 -24.893,89.618C-24.905,89.647 -24.916,89.676 -24.929,89.704C-25.291,90.505 -24.978,91.611 -24.978,92.575C-25.45,92.036 -25.923,91.497 -26.396,90.96C-25.896,90.511 -25.393,90.066 -24.893,89.618C-21.206,81.426 -19.433,72.661 -17.024,64.079C-13.992,53.276 -11.733,42.424 -12.445,31.088C-12.579,28.957 -13.286,27.992 -15.052,27.217C-19.819,25.122 -24.612,23.228 -29.755,22.133C-43.519,19.201 -57.172,15.811 -71.447,16.304C-76.027,16.462 -79.397,17.779 -81.463,21.878C-84.307,27.524 -87.329,33.108 -90.409,38.592C-95.789,48.172 -101.174,57.765 -107.793,66.683C-116.86,78.9 -124.865,91.901 -133.485,104.456C-141.792,116.555 -150.25,128.553 -158.739,140.527C-167.068,152.275 -175.714,163.802 -183.864,175.671C-191.812,187.247 -200.538,198.24 -209.479,208.991C-216.576,217.522 -222.952,226.643 -231.374,234.219C-243.992,245.57 -255.267,258.401 -268.476,269.159C-274.559,274.112 -280.552,279.341 -287.932,282.268C-294.903,285.033 -302.091,286.01 -308.173,280.126C-311.382,277.022 -313.268,273.187 -313.243,268.423C-313.151,250.582 -313.848,232.84 -307.997,215.385C-303.216,201.12 -298.036,187.007 -291.227,173.728C-285.598,162.753 -278.975,152.184 -272.112,141.788C-261.71,126.028 -250.506,110.912 -238.063,96.841C-225.71,82.871 -211.739,70.38 -197.92,57.824C-193.869,54.145 -192.507,47.442 -195.432,43.049C-196.89,40.859 -198.589,38.773 -200.461,36.923C-212.899,24.636 -227.2,15.338 -244.358,11.258C-254.824,8.77 -265.6,7.035 -276.007,11.359C-283.673,14.544 -289.676,20.414 -295.372,26.218C-305.633,36.674 -314.515,48.225 -322.399,60.688C-329.918,72.573 -337.918,84.124 -343.946,96.886C-344.362,97.768 -345.303,98.402 -345.928,99.075C-346.593,98.185 -347.112,97.285 -347.817,96.572C-355.722,88.589 -363.47,80.455 -371.284,72.392C-381.178,62.186 -392.067,52.949 -404.729,46.25C-414.512,41.072 -425.466,39.738 -436.263,39.431C-442.802,39.244 -449.257,42.057 -455.632,44C-467.243,47.54 -478.153,52.875 -489.396,57.343C-504.001,63.147 -518.302,69.729 -532.647,76.168C-544.507,81.491 -556.201,87.182 -568.058,92.509C-571.195,93.919 -574.641,94.68 -577.991,95.566C-579.771,96.036 -581.722,95.606 -582.922,94.322C-584.186,92.969 -582.66,91.418 -581.945,90.399C-579.683,87.169 -577.312,83.945 -574.547,81.15C-565.548,72.057 -556.115,63.415 -546.599,54.859C-538.392,47.481 -529.655,40.767 -521.03,33.917C-512.228,26.927 -503.236,20.172 -494.255,13.41C-488.88,9.361 -483.165,5.738 -477.979,1.468C-474.124,-1.704 -469.72,-3.991 -465.823,-7.019C-452.614,-17.284 -438.972,-26.939 -424.202,-34.795C-412.835,-40.841 -401.062,-46.125 -389.459,-51.725C-388.704,-52.09 -387.817,-52.549 -387.048,-52.463C-377.514,-51.395 -367.944,-52.498 -358.417,-51.957C-349.937,-51.476 -343.109,-53.556 -338.365,-61.332C-335.421,-66.16 -333.396,-70.881 -332.858,-76.636C-331.875,-87.144 -337.095,-95.246 -342.435,-103.124C-349.707,-113.85 -358.995,-122.515 -369.708,-130.181C-379.189,-136.966 -389.108,-139.976 -400.188,-140.137C-411.565,-140.303 -421.61,-135.105 -431.283,-130.088C-442.7,-124.169 -453.343,-116.767 -464.393,-110.126C-474.5,-104.053 -484.099,-97.303 -493.563,-90.252C-501.228,-84.543 -509.095,-79.026 -516.935,-73.519C-533.864,-61.627 -550.163,-48.837 -566.983,-36.784C-577.542,-29.218 -587.737,-21.198 -598.054,-13.328C-607.463,-6.151 -616.853,1.055 -626.089,8.451C-633.077,14.048 -640.705,18.94 -646.778,25.578C-653.253,32.656 -660.233,39.333 -665.757,47.219C-674.552,59.773 -683.461,72.149 -685.167,88.284C-686.239,98.428 -685.61,108.156 -683.235,117.964C-680.815,127.964 -677.716,137.721 -673.202,146.958C-668.181,157.235 -663.106,167.528 -656.362,176.823C-650.232,185.272 -642.556,192.352 -635.298,199.802C-627.987,207.305 -618.757,210.65 -608.776,211.63C-593.688,213.112 -579.382,209.194 -565.891,202.873C-540.181,190.826 -515.456,176.847 -490.388,163.543C-478.366,157.164 -466.358,150.763 -454.361,144.338C-449.629,141.805 -444.399,139.517 -438.778,139.778C-426.964,140.329 -417.606,145.123 -410.263,154.883C-403.204,164.263 -402.914,174.362 -407.123,183.857C-412.36,195.674 -420.22,206.23 -429.244,215.681C-435.966,222.72 -444.169,227.86 -452.14,233.332C-460.761,239.25 -468.9,245.861 -478.053,251.013C-489.235,257.308 -500.274,263.868 -511.566,269.957C-518.789,273.851 -526.175,277.585 -533.821,280.516C-542.423,283.813 -550.957,287.389 -560.317,288.587C-568.411,289.626 -576.325,291.643 -584.567,292.242C-594.138,292.938 -603.728,293.255 -613.176,292.453C-623.201,291.6 -633.167,292.33 -643.146,291.905C-643.793,291.878 -644.472,292.395 -645.122,292.688C-652.913,296.198 -656.462,305.769 -654.156,315.861C-651.679,326.706 -649.785,337.715 -644.424,347.648C-635.188,364.758 -632.021,370.713 -612.64,370.331C-593.503,369.952 -574.502,369.15 -555.442,366.899C-541.45,365.248 -527.886,362.525 -514.463,358.627C-495.821,353.212 -477.872,346.092 -460.934,336.523C-456.546,334.044 -451.937,331.948 -447.608,329.374C-439.646,324.638 -431.907,319.524 -423.904,314.862C-418.095,311.477 -417.715,311.575 -415.034,317.622C-409.345,330.446 -402.638,342.715 -395.608,354.83C-390.805,363.109 -384.874,370.673 -378.136,377.249C-373.735,381.542 -369.519,386.428 -363.546,389.241C-359.338,391.223 -356.165,394.951 -351.112,395.903C-341.937,397.631 -332.656,397.985 -323.599,396.793C-311.39,395.183 -300.651,389.277 -290.575,382.261C-280.038,374.923 -270.177,366.71 -259.958,358.964C-247.687,349.665 -236.241,339.379 -224.03,330.021C-213.775,322.164 -204.792,312.839 -195.442,303.985C-182.029,291.283 -168.905,278.226 -157.45,263.143C-157.579,271.268 -158.113,279.012 -158.112,286.687C-158.107,299.818 -157.31,312.978 -155.859,326.103C-154.878,334.997 -153.499,343.801 -151.244,352.35C-148.24,363.737 -140.769,372.259 -131.554,379.583C-119.179,389.418 -105.674,395.658 -89.626,395.354C-82.196,395.213 -74.783,395.331 -67.327,394.724C-61.473,394.248 -60.082,393.771 -60.177,387.08" style="fill-rule:nonzero;"/>
                        </g>
                        <g transform="matrix(1,0,0,1,493.801,89.6489)">
                            <path d="M0,15.049C0.401,13.343 0.248,11.481 0.181,9.696C0.045,6.132 1.494,3.616 5.078,3.05C7.752,2.629 10.848,6.199 10.975,9.593C11.103,13.038 11.003,16.491 11.003,20.649C10.689,24.795 11.631,29.708 10.138,34.52C9.371,36.987 8.18,38.92 5.419,38.927C2.783,38.935 0.849,37.243 0.412,34.822C-0.769,28.284 -1.562,21.697 0,15.049M1.613,55.133C5.17,54.19 7.85,51.614 10.883,49.142C9.711,54.166 12.375,54.521 16.033,54.336C20.518,54.109 25.024,54.212 29.518,54.313C31.588,54.36 32.684,54.168 32.674,51.51C32.566,20.937 32.585,-9.637 32.65,-40.211C32.654,-42.341 32.115,-43.064 29.919,-42.983C25.43,-42.819 20.906,-42.653 16.439,-43.015C12.084,-43.367 10.766,-41.896 10.904,-37.52C11.221,-27.467 11.004,-17.398 11.004,-7.335C9.592,-8.62 8.071,-9.017 6.988,-10.241C1.396,-16.558 -12.811,-15.122 -16.496,-7.602C-19.803,-0.855 -21.896,6.513 -22.233,14.101C-22.619,22.818 -22.661,31.584 -20.482,40.141C-17.566,51.595 -10.762,58.416 1.613,55.133" style="fill-rule:nonzero;"/>
                        </g>
                        <g transform="matrix(1,0,0,1,537.15,96.1402)">
                            <path d="M0,29.44C-0.029,32.599 0.589,35.648 1.413,38.529C2.039,40.715 1.901,43.445 4.279,45.092C12.017,50.453 27.635,49.683 32.468,38.027C32.468,41.371 32.572,43.476 32.436,45.564C32.318,47.365 33.02,47.852 34.74,47.823C40.133,47.733 45.529,47.729 50.923,47.824C52.691,47.856 53.204,47.268 53.199,45.527C53.15,24.548 53.152,3.568 53.197,-17.411C53.2,-19.09 52.807,-19.958 50.972,-19.726C46.047,-19.102 41.285,-20.831 36.355,-20.734C33.32,-20.674 32.222,-20.123 32.4,-16.853C33.117,-3.729 30.857,9.353 31.625,22.482C31.728,24.227 30.893,25.591 30.564,27.138C30.068,29.475 27.467,29.461 25.902,29.533C24.68,29.588 22.444,28.73 22.532,26.232C22.708,21.194 21.416,16.263 21.578,11.174C21.874,1.893 21.535,-7.408 21.736,-16.695C21.8,-19.7 21.25,-20.955 17.925,-20.698C13.755,-20.375 9.52,-20.365 5.35,-20.693C1.285,-21.013 -0.123,-19.841 -0.044,-15.513C0.229,-0.533 0.137,14.457 0,29.44" style="fill-rule:nonzero;"/>
                        </g>
                        <g transform="matrix(1,0,0,1,867.525,75.0439)">
                            <path d="M0,65.321C-0.013,67.54 0.687,68.09 2.795,68.032C7.889,67.892 12.992,67.875 18.085,68.038C20.315,68.109 20.897,67.349 20.781,65.239C20.167,54.047 21.512,42.899 21.633,31.723C21.663,28.923 21.781,26.18 22.512,23.436C23.203,20.839 24.583,19.24 27.316,19.421C30.011,19.598 31.616,21.269 31.522,23.976C31.052,37.541 32.65,51.148 30.692,64.684C30.437,66.462 30.207,68.172 33.177,68.054C39.016,67.824 44.871,67.901 50.716,68.033C52.751,68.078 53.284,67.381 53.194,65.465C53.054,62.473 53.218,59.468 53.146,56.471C52.795,41.704 54.026,26.907 52.271,12.166C51.903,9.068 51.11,6.205 48.91,3.864C42.594,-2.851 28.264,-0.516 21.893,8.251C22.523,5.787 20.5,3.838 20.764,1.495C20.955,-0.199 20.091,-0.46 18.661,-0.445C13.414,-0.389 8.165,-0.37 2.918,-0.453C1.281,-0.479 0.914,0.185 0.925,1.668C0.954,6.11 0.324,10.557 0.216,14.947C-0.196,31.73 0.091,48.529 0,65.321" style="fill-rule:nonzero;"/>
                        </g>
                        <g transform="matrix(1,0,0,1,685.742,104.161)">
                            <path d="M0,12.751C3.009,10.306 6.516,9.123 10.799,8.295C10.799,11.144 10.668,13.691 10.828,16.22C11.087,20.306 8.865,22.232 5.365,23.663C2.054,25.018 -0.965,24.947 -2.558,21.752C-4.226,18.405 -2.999,15.187 0,12.751M-17.12,38.177C-8.345,42.776 3.189,42.153 10.384,33.68C10.829,34.554 11.713,35.458 11.6,36.209C11.056,39.794 13.012,39.937 15.747,39.82C20.085,39.633 24.447,39.583 28.779,39.835C31.698,40.005 32.513,39.148 32.474,36.181C32.271,20.815 32.916,5.416 31.424,-9.901C30.42,-20.204 26.544,-26.035 14.731,-28.754C9.216,-30.025 3.753,-29.657 -1.669,-29.415C-11.163,-28.99 -19.091,-21.264 -20.619,-11.882C-20.909,-10.102 -20.244,-8.673 -18.376,-8.905C-11.594,-9.748 -4.019,-6.103 1.833,-12.43C2.924,-13.61 4.594,-13.597 6.016,-13.287C9.579,-12.511 11.039,-10.075 10.798,-6.526C10.562,-3.052 7.97,-3.435 5.658,-3.443C-0.306,-3.464 -5.699,-1.209 -10.93,1.173C-15.758,3.373 -20.136,6.98 -22.205,11.724C-24.504,16.995 -23.967,23.115 -23.005,28.803C-22.374,32.53 -20.442,36.435 -17.12,38.177" style="fill-rule:nonzero;"/>
                        </g>
                        <g transform="matrix(1,0,0,1,825.175,120.354)">
                            <path d="M0,-23.005C0.706,-26.586 2.128,-27.947 5.841,-27.827C9.982,-27.694 9.608,-24.472 9.862,-22.255C10.319,-18.277 9.991,-14.209 9.991,-10.178C9.992,-6.445 9.934,-2.713 10.01,1.017C10.079,4.429 8.538,7.097 5.246,7.199C1.907,7.304 -0.715,4.705 -0.686,1.374C-0.614,-6.745 -1.602,-14.887 0,-23.005M-6.703,23.336C-1.564,24.772 3.753,23.707 8.949,23.858C19.088,24.151 24.675,19.072 28.933,10.953C32.49,4.168 31.359,-3.108 31.603,-9.758C31.546,-16.031 31.922,-21.826 30.698,-27.543C29.512,-33.089 26.665,-37.581 22.377,-41.278C18.696,-44.452 14.216,-45.747 9.672,-46.302C-2.389,-47.777 -14.83,-44.858 -19.843,-30.494C-24,-18.579 -24.56,-6.656 -21.365,5.298C-19.246,13.224 -15.736,20.813 -6.703,23.336" style="fill-rule:nonzero;"/>
                        </g>
                        <g transform="matrix(1,0,0,1,434.339,129.858)">
                            <path d="M0,-39.034C4.206,-39.597 7.058,-37.119 7.447,-32.532C7.61,-30.616 7.075,-28.629 8.187,-26.434C4.003,-26.434 0.259,-26.418 -3.483,-26.447C-4.334,-26.452 -5.361,-26.108 -5.961,-26.984C-7.839,-29.731 -3.44,-38.573 0,-39.034M-15.532,12.968C-7.223,16.526 1.628,17.222 10.819,15.106C20.962,12.769 25.921,6.261 28.009,-3.142C28.273,-4.337 29.683,-7.081 26.734,-7.458C22.489,-8.002 18.181,-8.456 13.919,-8.32C10.723,-8.218 7.275,-7.92 6.489,-3.328C5.945,-0.152 2.543,-0.334 0.354,-0.53C-1.698,-0.712 -4.852,-1.226 -5.011,-4.122C-5.159,-6.799 -5.804,-9.353 -6.079,-11.98C-6.3,-14.098 -5.687,-14.874 -3.413,-14.788C1.381,-14.606 6.187,-14.733 10.987,-14.734C15.938,-14.734 20.89,-14.791 25.839,-14.708C28.112,-14.67 29.021,-15.528 29.099,-17.863C29.319,-24.541 28.394,-31.058 26.599,-37.446C22.109,-53.438 6.247,-56.256 -8.058,-53.675C-22.29,-51.105 -26.769,-38.595 -27.491,-27.847C-28.056,-19.43 -28.571,-10.821 -26.681,-2.464C-25.185,4.149 -21.8,10.284 -15.532,12.968" style="fill-rule:nonzero;"/>
                        </g>
                        <g transform="matrix(1,0,0,1,613.969,75.171)">
                            <path d="M0,67.627C4.168,69.738 9.234,70.569 13.909,69.507C21.319,70.318 27.838,68.911 33.512,64.262C40.611,58.446 40.566,49.922 41.998,42C42.504,39.201 39.965,39.159 38.129,39.098C34.234,38.966 30.316,39.282 26.439,38.995C22.37,38.693 19.41,38.922 20.359,44.34C20.605,45.75 19.734,47.425 19.159,48.893C18.195,51.348 16.332,53.535 13.745,53.227C11.103,52.912 10.12,49.981 9.738,47.641C8.382,39.315 8.835,31.022 10.438,22.716C11.008,19.768 11.847,17.415 14.997,17.553C18.448,17.704 19.673,20.625 20.433,23.568C20.614,24.271 20.353,25.08 20.483,25.806C20.97,28.507 21.635,30.685 25.395,30.153C28.775,29.675 32.278,30.128 35.725,30.035C41.63,29.875 42.095,29.249 41.19,23.394C41.077,22.661 41.238,21.888 41.15,21.148C40.56,16.156 39.045,11.552 35.538,7.769C27.844,-0.528 18.202,-2.942 7.619,-0.286C1.161,1.335 -4.78,4.616 -8.479,10.817C-12.156,16.984 -11.929,23.97 -12.744,30.673C-13.732,38.799 -12.478,46.984 -10.836,54.893C-9.647,60.618 -5.067,65.06 0,67.627" style="fill-rule:nonzero;"/>
                        </g>
                        <g transform="matrix(1,0,0,1,723.555,104.08)">
                            <path d="M0,-11.78C0.014,-9.33 0.815,-8.347 3.595,-9.157C8.756,-10.66 8.992,-10.335 8.994,-4.868C8.995,-3.37 8.962,-1.871 8.999,-0.374C9.259,10.185 8.227,20.786 9.919,31.297C10.373,34.114 10.457,37.847 13.443,38.756C19.567,40.621 26.014,40.176 32.348,39.436C34.449,39.191 35.562,38.301 34.246,35.871C32.581,32.797 31.565,29.33 31.584,25.903C31.639,15.771 31.083,5.672 30.643,-4.439C30.387,-10.288 31.083,-10.831 36.915,-9.109C39.618,-8.31 39.63,-9.386 39.611,-11.324C39.568,-15.668 39.316,-20.037 39.684,-24.35C39.996,-28.032 38.625,-28.947 35.248,-28.649C33.885,-28.528 31.248,-27.31 31.504,-30.649C31.956,-36.557 30.572,-42.528 32.315,-48.412C32.998,-50.716 32.406,-52.401 29.239,-52.03C26.579,-51.717 23.854,-51.965 21.157,-51.964C17.862,-51.964 14.566,-51.945 11.271,-51.974C9.992,-51.986 8.94,-52 8.97,-50.183C9.054,-45.092 8.546,-39.944 9.134,-34.919C9.877,-28.556 10.243,-28.599 3.893,-28.561C3.594,-28.559 3.288,-28.525 2.995,-28.566C0.785,-28.878 -0.188,-28.221 -0.069,-25.707C0.148,-21.074 -0.024,-16.423 0,-11.78" style="fill-rule:nonzero;"/>
                        </g>
                        <g transform="matrix(1,0,0,1,770.314,79.1558)">
                            <path d="M0,61.151C-0.011,63.882 0.924,64.894 3.664,64.818C8.908,64.672 14.164,64.634 19.405,64.835C21.986,64.934 22.636,64.113 22.601,61.6C22.463,51.255 22.544,40.908 22.544,30.561C22.544,20.214 22.46,9.867 22.603,-0.478C22.638,-3.02 21.939,-3.783 19.388,-3.695C13.847,-3.503 8.29,-3.537 2.746,-3.684C0.577,-3.742 -0.013,-3.086 -0.005,-0.929C0.073,19.765 0.076,40.459 0,61.151" style="fill-rule:nonzero;"/>
                        </g>
                        <g transform="matrix(1,0,0,1,771.81,47.5803)">
                            <path d="M0,18.143C2.038,20.512 6.728,18.566 9.598,18.935C13.09,18.935 15.936,18.851 18.773,18.966C20.502,19.037 21.114,18.488 21.082,16.706C20.983,11.321 20.952,5.932 21.095,0.549C21.15,-1.584 20.121,-2.369 18.489,-1.673C15.145,-0.247 11.733,-0.957 8.367,-0.909C-0.553,-0.782 -0.573,-0.866 -0.544,8.179C-0.533,11.598 -1.721,16.143 0,18.143" style="fill-rule:nonzero;"/>
                        </g>
                        <g transform="matrix(1,0,0,1,426.755,45.516)">
                            <path d="M0,22.718C3.804,22.974 7.717,23.36 10.526,19.71C16.06,12.518 22.958,6.595 29.774,-0.601C23.862,-0.601 18.806,-0.565 13.751,-0.627C12.472,-0.642 11.362,-0.453 10.663,0.662C6.673,7.022 2.796,13.457 -1.308,19.742C-2.657,21.811 -1.556,22.614 0,22.718" style="fill-rule:nonzero;"/>
                        </g>
                    </g>
                </g>
            </g>
        </g>
        <g id="logo-vectorisation-crade-sans-solidaires1" serif:id="logo-vectorisation-crade-sans-solidaires">
        </g>
    </g>
</svg>
